<svg width="140" height="120" viewBox="0 0 140 120" fill="none" xmlns="http://www.w3.org/2000/svg">
<path d="M107.132 21.7172C106.233 21.8225 105.574 21.189 104.708 21.6206C103.474 22.2369 98.8098 22.3679 97.4613 22.9755C96.6862 23.5402 92.3037 22.7544 91.404 23.0829C89.4457 23.3556 91.1227 23.0807 89.1537 23.2611C86.2507 23.7185 83.4808 24.6375 80.5262 24.6418C77.2774 24.6461 69.2683 25.885 66.011 26.1255C60.7352 26.5141 63.9389 26.2693 58.6889 26.192C49.7866 26.0611 40.8455 26.6365 31.9389 26.7009C29.7294 26.716 24.3356 27.2828 24.3398 28.0773C24.9797 29.1294 24.5825 32.6359 24.6941 33.8684C24.6855 35.1803 24.6834 36.4923 24.692 37.8042C24.7178 40.6901 24.7951 43.5759 24.8444 46.4597C25.173 65.542 26.2058 79.1983 24.7135 98.2292C24.5653 100.104 23.9061 101.738 25.8171 102.425C27.0003 102.85 29.7444 102.272 31.022 102.249C34.6057 102.184 38.1873 102.124 41.771 102.06C53.2844 101.849 64.5809 105.719 76.0041 104.164C85.0976 102.927 94.1288 102.324 103.216 103.741C105.026 104.025 111.304 104.984 111.931 102.779C112.477 100.864 111.736 97.6258 111.717 95.5967C111.682 91.7639 111.12 88.3219 110.587 84.517C110.115 81.1394 110.536 77.7747 110.042 74.438C109.522 70.9165 108.766 68.1187 108.732 64.4491C108.59 49.79 108.721 43.7155 108.468 29.0586L107.132 21.7172Z" fill="#87A05A"/>
<path d="M38.1345 52.4204C39.3004 52.7983 39.3176 54.0115 40.1808 54.9455C40.7154 55.5231 41.8835 57.0348 42.2528 57.8486C42.4053 58.4863 42.7768 58.8256 42.94 59.459C43.7344 59.8348 44.2025 60.6829 44.7694 61.4108C47.0734 64.3998 49.0016 68.3957 50.5089 71.8613C51.5009 74.919 52.7656 77.8349 54.3095 80.6134C55.5957 82.4085 56.7444 84.298 57.7558 86.2842C58.795 88.0814 59.6754 89.971 60.3969 91.9486C62.1748 95.3927 65.0993 100.973 67.6094 103.842C69.2541 105.485 69.5075 106.215 70.5768 108.31C71.5903 110.015 72.5029 111.782 73.3124 113.612C74.3817 115.046 75.378 116.539 76.3035 118.085C76.544 119.042 64.6569 119.283 62.0502 119.283C55.9714 120.163 43.0387 118.935 40.3354 119.283C38.1066 119.843 36.2857 119.128 34.0032 119.278C29.9149 119.463 34.0054 119.321 29.9128 119.283C26.4235 118.999 19.6104 118.961 17.7531 119.283C16.2242 119.927 10.8047 119.283 5.59335 119.283C4.72373 119.283 -1.35505 119.283 0.276833 119.044C1.24952 116.644 2.24369 117.249 2.98663 114.885C3.9722 112.528 4.43385 112.01 5.59335 108.727C6.98046 104.791 9.42614 100.559 12.0007 97.2909C15.3267 93.0694 16.7138 87.6413 19.3592 82.8659C20.4006 81.0858 20.7291 79.8469 21.5558 77.9358C23.1855 75.2883 23.0245 74.1052 25.03 71.7776C27.218 69.1279 27.6067 68.6062 29.3738 65.6194C32.4529 60.4081 33.3226 56.309 37.7888 52.4226H38.1345V52.4204Z" fill="#B4CD28"/>
<path d="M104.355 0.0864405C107.844 0.664043 111.669 1.18367 114.909 2.82844C117.29 4.03733 120.502 3.41893 122.652 4.90266C124.464 6.15234 128.267 9.59863 130.012 11.0179C137.654 17.2191 140.209 26.0678 139.228 35.8656C138.193 46.2066 135.174 55.6758 124.548 60.273C115.199 64.3184 121.048 65.0291 102.487 64.7006C91.3516 64.5031 81.614 54.5808 77.3281 51.2612C73.0444 47.9415 71.9923 39.4128 72.1125 32.3721C72.3702 17.3887 76.6796 7.0327 84.9486 3.55205C92.6915 0.296868 102.32 -0.250673 104.355 0.0864405Z" fill="#46C3BE"/>
</svg>
