<svg width="126" height="45" viewBox="0 0 126 45" fill="none" xmlns="http://www.w3.org/2000/svg">
<path d="M39.5686 8.02116C39.2363 8.06002 38.9929 7.82606 38.6733 7.98547C38.2172 8.21308 36.4947 8.26146 35.9966 8.4859C35.7103 8.69448 34.0917 8.40422 33.7594 8.52556C33.0361 8.62628 33.6555 8.52476 32.9282 8.59138C31.856 8.76031 30.8329 9.09974 29.7416 9.10133C28.5417 9.10291 25.5836 9.56052 24.3805 9.64934C22.4319 9.79289 23.6151 9.70248 21.6761 9.67393C18.388 9.62555 15.0856 9.83809 11.796 9.86189C10.9799 9.86744 8.98767 10.0768 8.98926 10.3702C9.2256 10.7589 9.07888 12.0539 9.12012 12.5092C9.11694 12.9937 9.11615 13.4783 9.11932 13.9629C9.12884 15.0288 9.15739 16.0947 9.17563 17.1598C9.29697 24.2078 9.67844 29.2518 9.12725 36.2808C9.07253 36.9731 8.82906 37.5767 9.53489 37.8305C9.97188 37.9875 10.9854 37.7742 11.4573 37.7654C12.7809 37.7416 14.1038 37.7194 15.4274 37.6956C19.6799 37.6179 23.8523 39.047 28.0714 38.4729C31.4301 38.016 34.7658 37.7932 38.1221 38.3166C38.7906 38.4213 41.1096 38.7758 41.3412 37.9613C41.5426 37.2539 41.269 36.0579 41.2618 35.3085C41.2492 33.8928 41.0414 32.6215 40.8447 31.2162C40.6702 29.9687 40.8257 28.726 40.6432 27.4935C40.4513 26.1929 40.1722 25.1595 40.1595 23.8041C40.1071 18.3898 40.1555 16.1462 40.0619 10.7327L39.5686 8.02116Z" fill="#87A05A"/>
<path d="M14.0849 19.3613C14.5156 19.5009 14.5219 19.949 14.8407 20.294C15.0382 20.5073 15.4697 21.0656 15.6061 21.3662C15.6624 21.6018 15.7996 21.7271 15.8598 21.961C16.1533 22.0998 16.3262 22.4131 16.5356 22.6819C17.3865 23.7859 18.0987 25.2618 18.6554 26.5418C19.0218 27.6712 19.489 28.7482 20.0592 29.7744C20.5342 30.4374 20.9585 31.1353 21.3321 31.8689C21.7159 32.5327 22.0411 33.2306 22.3075 33.961C22.9642 35.2331 24.0444 37.2943 24.9715 38.3539C25.579 38.9606 25.6726 39.2302 26.0675 40.0043C26.4418 40.634 26.7789 41.2867 27.0779 41.9624C27.4728 42.4921 27.8408 43.0433 28.1826 43.6143C28.2715 43.9681 23.881 44.0569 22.9182 44.0569C20.673 44.382 15.8963 43.9284 14.8979 44.0569C14.0746 44.2639 13.4021 43.9998 12.5591 44.0553C11.0491 44.1235 12.5599 44.0712 11.0483 44.0569C9.75952 43.9522 7.24309 43.9379 6.55708 44.0569C5.99241 44.2948 3.99069 44.0569 2.0659 44.0569C1.74471 44.0569 -0.500489 44.0569 0.102248 43.9688C0.461511 43.0822 0.828705 43.3058 1.10311 42.4327C1.46713 41.5619 1.63764 41.3707 2.0659 40.1581C2.57823 38.7044 3.48154 37.1413 4.43244 35.9342C5.66091 34.375 6.17324 32.3701 7.1503 30.6063C7.53494 29.9489 7.65628 29.4913 7.96162 28.7854C8.56356 27.8076 8.50408 27.3706 9.24481 26.5109C10.053 25.5322 10.1965 25.3395 10.8492 24.2364C11.9865 22.3116 12.3077 20.7976 13.9573 19.3621H14.0849V19.3613Z" fill="#B4CD28"/>
<path d="M38.543 0.0319268C39.8317 0.245264 41.2442 0.437188 42.441 1.04468C43.3205 1.49118 44.5069 1.26278 45.3008 1.81079C45.9701 2.27236 47.3747 3.54525 48.0194 4.06947C50.842 6.35987 51.7858 9.62813 51.4233 13.2469C51.0411 17.0664 49.926 20.5638 46.0011 22.2618C42.548 23.756 44.7084 24.0185 37.853 23.8971C33.7401 23.8242 30.1435 20.1594 28.5606 18.9333C26.9784 17.7072 26.5898 14.5571 26.6342 11.9566C26.7293 6.42252 28.321 2.59752 31.3752 1.31195C34.235 0.109648 37.7912 -0.092586 38.543 0.0319268Z" fill="#46C3BE"/>
<path d="M115.286 33.328L114.672 33.5477C114.129 33.7674 113.93 33.9688 113.93 34.4447C113.93 34.9943 114.328 35.3789 114.979 35.3789H118.36C119.047 35.3789 119.427 34.9943 119.427 34.4447C119.427 33.9871 119.264 33.7674 118.776 33.5104L118.342 33.3272V29.0232C118.342 29.0232 118.831 28.2904 119.753 28.2904C120.639 28.2904 121.145 28.8035 121.145 30.1771V33.3272L120.711 33.5104C120.223 33.7666 120.06 33.9863 120.06 34.4447C120.06 34.9943 120.458 35.3789 121.127 35.3789H124.4C125.069 35.3789 125.448 34.9943 125.448 34.4447C125.448 33.9688 125.267 33.7483 124.725 33.5287L124.201 33.3272V29.5363C124.201 27.2102 123.007 26.0198 120.837 26.0198C118.686 26.0198 118.071 27.5402 118.071 27.5402L118.034 27.5219V27.357C118.034 26.4227 117.673 26.0563 116.678 26.0563C115.973 26.0563 115.16 26.203 114.635 26.368C114.111 26.533 113.894 26.7891 113.894 27.3205C113.894 27.8336 114.093 28.0533 114.654 28.1992L115.286 28.3824V33.328ZM108.073 29.7568C108.217 28.6576 108.724 28.0168 109.483 28.0168C110.206 28.0168 110.695 28.5117 110.73 29.7568H108.073ZM112.213 31.3683C113.099 31.3683 113.606 30.8552 113.606 29.775C113.606 27.4125 112.231 26.0024 109.772 26.0024C106.916 26.0024 105.017 27.9438 105.017 31.0757C105.017 33.8776 106.681 35.5811 109.664 35.5811C111.454 35.5811 112.521 35.0498 112.937 34.6287C113.155 34.409 113.263 34.1711 113.263 33.8594C113.263 33.3835 112.992 33.1083 112.558 33.1083C112.143 33.1083 111.672 33.3835 110.515 33.3835C109.104 33.3835 108.273 32.7062 108.074 31.3691H112.213V31.3683ZM100.569 32.5587C100.569 32.5587 100.08 33.2915 99.1759 33.2915C98.3083 33.2915 97.6572 32.6142 97.6572 30.856C97.6572 28.8598 98.3622 28.1088 99.574 28.1088C100.207 28.1088 100.569 28.3285 100.569 28.3285V32.5587ZM100.587 25.3061C100.587 25.6177 100.605 25.8374 100.622 26.0571L100.587 26.0936C100.587 26.0936 100.225 26.0016 99.7366 26.0016C96.3914 26.0016 94.511 27.9248 94.511 31.1843C94.511 34.1512 95.9037 35.5613 98.091 35.5613C100.243 35.5613 100.857 34.041 100.857 34.041L100.894 34.0592V34.2242C100.894 35.1029 101.292 35.5058 102.268 35.5058C102.901 35.5058 103.678 35.3773 104.185 35.1941C104.709 34.9927 104.926 34.7183 104.926 34.2234C104.926 33.7103 104.746 33.4906 104.203 33.3629L103.643 33.2344V23.6581C103.643 22.5041 103.209 22.083 102.069 22.083C101.237 22.083 100.442 22.2115 99.9174 22.3764C99.3932 22.5414 99.1759 22.7976 99.1759 23.3107C99.1759 23.8238 99.3932 24.0435 99.9357 24.2077L100.587 24.3726V25.3061ZM88.5257 33.328L87.9111 33.5477C87.3686 33.7674 87.1695 33.9688 87.1695 34.4447C87.1695 34.9943 87.5677 35.3789 88.218 35.3789H92.0152C92.6663 35.3789 93.0462 34.9943 93.0462 34.4447C93.0462 33.9871 92.8654 33.7674 92.3047 33.5659L91.5814 33.328V29.3904C91.8162 29.097 92.196 28.8226 92.6846 28.8226C93.0827 28.8226 93.1906 29.1342 93.5705 29.1342C94.1494 29.1342 94.7275 28.3467 94.7275 27.1198C94.7275 26.3505 94.4198 25.9477 93.6965 25.9477C92.5212 25.9477 91.7258 26.7534 91.3094 27.8161L91.2729 27.7979V27.3403C91.2729 26.4243 90.9113 26.0579 89.9168 26.0579C89.2117 26.0579 88.398 26.2046 87.8738 26.3696C87.3496 26.5345 87.1323 26.7907 87.1323 27.3221C87.1323 27.8352 87.3313 28.0549 87.892 28.2008L88.5249 28.384V33.328H88.5257ZM82.3421 32.8157C82.3421 32.8157 81.89 33.3835 81.0581 33.3835C80.4435 33.3835 80.0454 32.9806 80.0454 32.5048C80.0454 32.0099 80.4609 31.7173 81.438 31.7173C82.0169 31.7173 82.3421 31.8085 82.3421 31.8085V32.8157ZM82.3786 30.2144C82.3786 30.2144 81.8361 30.1224 81.1311 30.1224C78.184 30.1224 76.9 31.3128 76.9 32.7602C76.9 34.3352 78.1118 35.5621 79.974 35.5621C81.9812 35.5621 82.6141 34.1703 82.6141 34.1703L82.6498 34.1885V34.2797C82.6498 35.1037 83.0654 35.5066 84.0242 35.5066C84.711 35.5066 85.4708 35.3781 85.995 35.1949C86.501 34.9935 86.7183 34.7191 86.7183 34.2242C86.7183 33.7111 86.5557 33.4914 86.0132 33.3637L85.4708 33.2535C85.3621 31.7149 85.4343 30.488 85.4343 29.1691C85.4343 27.1174 84.3311 26.019 81.6371 26.019C79.6298 26.019 78.2015 26.6051 77.7312 27.081C77.5321 27.2824 77.4417 27.4838 77.4417 27.74C77.4417 28.2349 77.7668 28.5823 78.2554 28.5823C78.7439 28.5823 79.3768 28.1976 80.8234 28.1976C81.9622 28.1976 82.3786 28.6187 82.3786 29.7362V30.2144ZM73.8435 26.6249C74.0608 27.1928 74.3503 27.4307 74.8563 27.4307C75.3805 27.4307 75.7064 27.1745 75.7239 26.5702C75.7421 26.1126 75.7421 25.8374 75.7421 25.3061V25.0864C75.7421 24.1704 75.67 23.896 75.3805 23.5843C75.0006 23.2179 74.0608 22.888 72.4152 22.888C67.8764 22.888 65.1641 25.6352 65.1641 29.5181C65.1641 33.2543 67.46 35.5803 71.4389 35.5803C73.7713 35.5803 74.838 34.9578 75.2901 34.6096C75.7421 34.2615 76.0134 33.8768 76.0134 33.0528V29.8115C76.0134 29.1342 75.6882 28.8043 75.0188 28.8043H71.9814C71.4024 28.8043 71.059 29.1707 71.059 29.5918C71.059 30.0867 71.3485 30.3976 71.9631 30.5808L73.0298 30.9107V33.3653C73.0298 33.3653 72.7768 33.4565 72.2161 33.4565C69.9019 33.4565 68.4728 32.0099 68.4728 29.189C68.4728 26.5147 69.8654 25.1046 72.0171 25.1046C72.9933 25.1046 73.3915 25.3061 73.3915 25.3061L73.8435 26.6249ZM54.4243 36.057C54.0809 36.7533 53.6471 37.0824 52.9238 37.0824C52.0736 37.0824 51.9475 36.8627 51.3868 36.8627C50.8261 36.8627 50.3384 37.3386 50.3384 38.1999C50.3384 39.1159 51.0077 39.6837 52.237 39.6837C54.2625 39.6837 56.215 38.6583 58.0415 34.0426L60.3382 28.2365L60.573 28.1262C61.1337 27.8518 61.3502 27.5037 61.3502 27.0088C61.3502 26.5329 61.0068 26.203 60.4096 26.203H57.7155C57.1191 26.203 56.775 26.5329 56.775 27.0088C56.775 27.4846 57.0097 27.7963 57.5704 28.089L57.7877 28.1992L56.6845 31.2946C56.3768 32.1733 56.1603 32.9981 56.1603 32.9981H56.1238C56.1238 32.9981 55.9073 32.1741 55.6179 31.3128L54.4964 28.1992L54.713 28.089C55.2737 27.7955 55.5084 27.4846 55.5084 27.0088C55.5084 26.5329 55.165 26.203 54.5678 26.203H51.2591C50.6627 26.203 50.3185 26.5329 50.3185 27.0088C50.3185 27.5037 50.5176 27.851 51.0957 28.1262L51.3305 28.2365L54.4243 36.057ZM34.8417 33.328L34.227 33.5477C33.6846 33.7674 33.4855 33.9688 33.4855 34.4447C33.4855 34.9943 33.8836 35.3789 34.534 35.3789H37.8974C38.5667 35.3789 38.9458 34.976 38.9458 34.4447C38.9458 33.9871 38.8015 33.7856 38.313 33.5104L37.8974 33.3272V29.0232C37.8974 29.0232 38.3859 28.2904 39.2718 28.2904C40.1394 28.2904 40.6279 28.8035 40.6279 30.1771V33.3272L40.2298 33.5104C39.7413 33.7848 39.597 33.9863 39.597 34.4447C39.597 34.9943 39.9768 35.3789 40.6454 35.3789H43.6829C44.3522 35.3789 44.7496 34.9943 44.7496 34.4447C44.7496 33.9871 44.587 33.7856 44.0984 33.5104L43.7003 33.3272V29.6093C43.7003 29.2429 43.6821 29.0414 43.6821 29.0414C43.6821 29.0414 44.1706 28.2904 45.0565 28.2904C45.9241 28.2904 46.4309 28.8035 46.4309 30.1771V33.3272L46.0328 33.5104C45.5442 33.7848 45.3816 33.9863 45.3816 34.4447C45.3816 34.9943 45.7615 35.3789 46.4301 35.3789H49.7031C50.3542 35.3789 50.7341 34.9943 50.7341 34.4447C50.7341 33.9688 50.5533 33.7483 50.0108 33.5287L49.4866 33.3272V29.5363C49.4866 27.2102 48.293 26.0198 46.1596 26.0198C43.9898 26.0198 43.303 27.5766 43.303 27.5766C42.797 26.6059 41.8929 26.0198 40.3559 26.0198C38.2408 26.0198 37.6254 27.5402 37.6254 27.5402L37.5889 27.5219V27.357C37.5889 26.4227 37.2272 26.0563 36.2327 26.0563C35.5277 26.0563 34.714 26.203 34.1898 26.368C33.6655 26.533 33.4482 26.7891 33.4482 27.3205C33.4482 27.8336 33.6473 28.0533 34.208 28.1992L34.8409 28.3824V33.328H34.8417Z" fill="white"/>
<path d="M125.679 43.9726H125.455C125.284 43.9726 125.192 44.0662 125.192 44.2391V44.573C125.192 44.7467 125.284 44.8403 125.455 44.8403H125.679C125.85 44.8403 125.942 44.7467 125.942 44.573V44.2391C125.942 44.0662 125.85 43.9726 125.679 43.9726ZM125.685 40.1698H125.448C125.277 40.1698 125.185 40.2634 125.185 40.4371V40.8907L125.277 43.3596C125.283 43.5261 125.376 43.6197 125.54 43.6197H125.593C125.758 43.6197 125.85 43.5261 125.857 43.3596L125.949 40.8844V40.4371C125.949 40.2634 125.857 40.1698 125.685 40.1698ZM121.549 44.573V41.8044L122.484 44.6198C122.53 44.7665 122.629 44.8403 122.78 44.8403H123.017C123.189 44.8403 123.281 44.7467 123.281 44.573V40.4363C123.281 40.2626 123.189 40.169 123.017 40.169H122.846C122.675 40.169 122.583 40.2626 122.583 40.4363V43.0582L121.687 40.3895C121.641 40.2428 121.541 40.169 121.39 40.169H121.113C120.942 40.169 120.85 40.2626 120.85 40.4363V44.573C120.85 44.7467 120.942 44.8403 121.113 44.8403H121.284C121.457 44.8403 121.549 44.7467 121.549 44.573ZM119.046 44.573V44.4263C119.046 44.2526 118.954 44.159 118.782 44.159H117.768V42.8116H118.559C118.73 42.8116 118.822 42.718 118.822 42.5443V42.3976C118.822 42.2239 118.73 42.1303 118.559 42.1303H117.768V40.8495H118.762C118.934 40.8495 119.026 40.7559 119.026 40.5822V40.4355C119.026 40.2618 118.934 40.1682 118.762 40.1682H117.268C117.096 40.1682 117.004 40.2618 117.004 40.4355V44.5722C117.004 44.7459 117.096 44.8395 117.268 44.8395H118.782C118.954 44.8403 119.046 44.7467 119.046 44.573ZM114.29 41.2778V43.7331C114.29 44.067 114.119 44.1598 113.868 44.1598H113.48V40.8503H113.868C114.119 40.8503 114.29 40.9439 114.29 41.2778ZM113.895 40.1698H112.979C112.808 40.1698 112.716 40.2634 112.716 40.4371V44.5738C112.716 44.7475 112.808 44.841 112.979 44.841H113.895C114.593 44.841 115.054 44.5611 115.054 43.8537V41.158C115.054 40.4498 114.593 40.1698 113.895 40.1698ZM109.192 40.8503H109.594C109.844 40.8503 110.016 40.9439 110.016 41.277V41.8845C110.016 42.2183 109.844 42.3111 109.594 42.3111H109.192V40.8503ZM110.839 44.5333L110.279 42.8584C110.595 42.718 110.779 42.438 110.779 41.9907V41.1564C110.779 40.449 110.319 40.169 109.62 40.169H108.691C108.52 40.169 108.428 40.2626 108.428 40.4363V44.573C108.428 44.7467 108.52 44.8403 108.691 44.8403H108.928C109.1 44.8403 109.192 44.7467 109.192 44.573V42.9781H109.58L110.094 44.6198C110.14 44.7728 110.239 44.8403 110.391 44.8403H110.622C110.812 44.8403 110.898 44.7134 110.839 44.5333ZM105.042 43.1589L105.365 41.0842L105.688 43.1589H105.042ZM106.676 44.5532L105.905 40.4101C105.879 40.2499 105.774 40.1698 105.615 40.1698H105.141C104.983 40.1698 104.877 40.2499 104.851 40.4101L104.094 44.5532C104.06 44.7395 104.153 44.8403 104.331 44.8403H104.535C104.693 44.8403 104.792 44.7601 104.818 44.5936L104.943 43.7997H105.786L105.912 44.5936C105.938 44.7601 106.037 44.8403 106.195 44.8403H106.438C106.617 44.8403 106.709 44.7403 106.676 44.5532ZM102.157 42.438H101.472C101.301 42.438 101.209 42.5316 101.209 42.7053V42.825C101.209 42.9987 101.301 43.0923 101.472 43.0923H101.657V43.7863C101.657 44.1201 101.485 44.2137 101.235 44.2137C100.984 44.2137 100.814 44.1201 100.814 43.7863V41.2246C100.814 40.8907 100.985 40.7979 101.235 40.7979C101.485 40.7979 101.657 40.8915 101.657 41.2246V41.5046C101.657 41.6783 101.749 41.7718 101.92 41.7718H102.157C102.328 41.7718 102.42 41.6783 102.42 41.5046V41.1041C102.42 40.4101 101.96 40.1167 101.261 40.1167H101.209C100.511 40.1167 100.049 40.4101 100.049 41.1041V43.906C100.049 44.6333 100.51 44.8934 101.209 44.8934H101.261C101.959 44.8934 102.42 44.6269 102.42 43.906V42.7053C102.42 42.5316 102.328 42.438 102.157 42.438ZM94.1804 40.8503H94.5825C94.8331 40.8503 95.0036 40.9439 95.0036 41.277V41.8845C95.0036 42.2183 94.8323 42.3111 94.5825 42.3111H94.1804V40.8503ZM95.8276 44.5333L95.2677 42.8584C95.5841 42.718 95.7681 42.438 95.7681 41.9907V41.1564C95.7681 40.449 95.3073 40.169 94.6086 40.169H93.6799C93.5086 40.169 93.4166 40.2626 93.4166 40.4363V44.573C93.4166 44.7467 93.5086 44.8403 93.6799 44.8403H93.9171C94.0884 44.8403 94.1804 44.7467 94.1804 44.573V42.9781H94.569L95.0829 44.6198C95.1289 44.7728 95.228 44.8403 95.3795 44.8403H95.6103C95.8006 44.8403 95.8863 44.7134 95.8276 44.5333ZM91.1897 40.1698H90.9525C90.7812 40.1698 90.6892 40.2634 90.6892 40.4371V43.7863C90.6892 44.1201 90.5441 44.2137 90.2943 44.2137C90.0437 44.2137 89.8993 44.1201 89.8993 43.7863V40.4371C89.8993 40.2634 89.8073 40.1698 89.636 40.1698H89.3989C89.2276 40.1698 89.1356 40.2634 89.1356 40.4371V43.9068C89.1356 44.6341 89.5837 44.8942 90.2816 44.8942H90.3078C91.0057 44.8942 91.4538 44.6277 91.4538 43.9068V40.4371C91.4538 40.2634 91.361 40.1698 91.1897 40.1698ZM85.5914 43.7863V41.2246C85.5914 40.8907 85.7627 40.7979 86.0125 40.7979C86.2631 40.7979 86.4344 40.8915 86.4344 41.2246V43.7863C86.4344 44.1201 86.2631 44.2137 86.0125 44.2137C85.7627 44.2129 85.5914 44.1193 85.5914 43.7863ZM84.8268 41.1041V43.906C84.8268 44.6134 85.2876 44.8934 85.9863 44.8934H86.0394C86.7373 44.8934 87.1989 44.6134 87.1989 43.906V41.1041C87.1989 40.3967 86.7381 40.1167 86.0394 40.1167H85.9863C85.2884 40.1167 84.8268 40.3903 84.8268 41.1041ZM82.2914 43.1788L83.1281 40.4696C83.1875 40.2896 83.1019 40.169 82.9108 40.169H82.6673C82.5095 40.169 82.4167 40.2428 82.3778 40.4022L81.917 42.3373L81.4563 40.4022C81.4166 40.242 81.3246 40.169 81.1668 40.169H80.9098C80.7187 40.169 80.6331 40.2896 80.6925 40.4696L81.5292 43.1788V44.573C81.5292 44.7467 81.6212 44.8403 81.7925 44.8403H82.0297C82.201 44.8403 82.293 44.7467 82.293 44.573V43.1788H82.2914ZM76.6851 41.5712V41.0779C76.6851 40.384 76.1847 40.1175 75.5518 40.1175H75.5383C74.9063 40.1175 74.405 40.384 74.405 41.0779V41.6917C74.405 42.1787 74.662 42.392 75.1101 42.6522L75.6438 42.9591C75.8746 43.086 75.9468 43.2057 75.9468 43.446V43.8132C75.9468 44.1003 75.7818 44.2272 75.5518 44.2272C75.3218 44.2272 75.1569 44.1003 75.1569 43.8132V43.3731C75.1569 43.1994 75.0649 43.1066 74.8936 43.1066H74.6699C74.4986 43.1066 74.4066 43.2002 74.4066 43.3731V43.9203C74.4066 44.6475 74.8476 44.8942 75.5463 44.8942H75.5598C76.2577 44.8942 76.6994 44.6404 76.6994 43.9203V43.2462C76.6994 42.7457 76.4361 42.5387 75.9944 42.2858L75.4543 41.9788C75.237 41.8519 75.1577 41.7457 75.1577 41.5054V41.185C75.1577 40.8915 75.3218 40.7845 75.5463 40.7845C75.7699 40.7845 75.9349 40.8915 75.9349 41.185V41.572C75.9349 41.7457 76.0269 41.8393 76.1982 41.8393H76.4218C76.5931 41.8377 76.6851 41.7449 76.6851 41.5712ZM72.7332 44.573V44.4263C72.7332 44.2526 72.6412 44.159 72.4699 44.159H71.4556V42.8116H72.2463C72.4176 42.8116 72.5096 42.718 72.5096 42.5443V42.3976C72.5096 42.2239 72.4176 42.1303 72.2463 42.1303H71.4556V40.8495H72.4501C72.6214 40.8495 72.7134 40.7559 72.7134 40.5822V40.4355C72.7134 40.2618 72.6214 40.1682 72.4501 40.1682H70.9552C70.7839 40.1682 70.6919 40.2618 70.6919 40.4355V44.5722C70.6919 44.7459 70.7839 44.8395 70.9552 44.8395H72.4699C72.6412 44.8403 72.7332 44.7467 72.7332 44.573ZM68.959 44.5333L68.0961 41.9249L68.821 40.4839C68.913 40.3039 68.8345 40.1706 68.6299 40.1706H68.3531C68.2079 40.1706 68.1025 40.2372 68.0501 40.3776L67.3054 42.2723V40.4379C67.3054 40.2642 67.2134 40.1706 67.0421 40.1706H66.805C66.6337 40.1706 66.5417 40.2642 66.5417 40.4379V44.5746C66.5417 44.7483 66.6337 44.8418 66.805 44.8418H67.0421C67.2134 44.8418 67.3054 44.7483 67.3054 44.5746V43.4936L67.648 42.8132L68.2143 44.6214C68.2603 44.7744 68.3594 44.8418 68.5109 44.8418H68.7417C68.9328 44.8402 69.0185 44.7134 68.959 44.5333ZM63.1561 43.1589L63.4788 41.0842L63.8016 43.1589H63.1561ZM64.7898 44.5532L64.0189 40.4101C63.9928 40.2499 63.8873 40.1698 63.7287 40.1698H63.2544C63.0966 40.1698 62.9911 40.2499 62.9649 40.4101L62.2075 44.5532C62.1742 44.7395 62.267 44.8403 62.4447 44.8403H62.6485C62.8063 44.8403 62.9055 44.7601 62.9316 44.5936L63.0569 43.7997H63.9L64.0253 44.5936C64.0514 44.7601 64.1506 44.8403 64.3084 44.8403H64.5519C64.7303 44.8403 64.8223 44.7403 64.7898 44.5532ZM59.7181 41.9844V44.573C59.7181 44.7467 59.8101 44.8403 59.9814 44.8403H60.1923C60.3636 44.8403 60.4556 44.7467 60.4556 44.573V40.4363C60.4556 40.2626 60.3636 40.169 60.1923 40.169H59.929C59.7776 40.169 59.6784 40.2428 59.6324 40.3895L58.8092 42.8845L57.9924 40.3895C57.9464 40.2357 57.8472 40.169 57.6957 40.169H57.4586C57.2873 40.169 57.1953 40.2626 57.1953 40.4363V44.573C57.1953 44.7467 57.2873 44.8403 57.4586 44.8403H57.6426C57.8139 44.8403 57.9059 44.7467 57.9059 44.573V41.9844L58.5253 43.9393C58.5713 44.0924 58.6704 44.1598 58.8148 44.1598C58.9599 44.1598 59.0519 44.0932 59.0979 43.9393L59.7181 41.9844Z" fill="white"/>
</svg>
