<svg width="341" height="122" viewBox="0 0 341 122" fill="none" xmlns="http://www.w3.org/2000/svg">
<path d="M107.132 21.7172C106.233 21.8225 105.574 21.189 104.708 21.6206C103.474 22.2369 98.8098 22.3679 97.4613 22.9755C96.6862 23.5402 92.3037 22.7544 91.404 23.0829C89.4457 23.3556 91.1227 23.0807 89.1537 23.2611C86.2507 23.7185 83.4808 24.6375 80.5262 24.6418C77.2774 24.6461 69.2683 25.885 66.011 26.1255C60.7352 26.5141 63.9389 26.2693 58.6889 26.192C49.7866 26.0611 40.8455 26.6365 31.9389 26.7009C29.7294 26.716 24.3356 27.2828 24.3398 28.0773C24.9797 29.1294 24.5825 32.6359 24.6941 33.8684C24.6855 35.1803 24.6834 36.4923 24.692 37.8042C24.7178 40.6901 24.7951 43.5759 24.8444 46.4597C25.173 65.542 26.2058 79.1983 24.7135 98.2292C24.5653 100.104 23.9061 101.738 25.8171 102.425C27.0003 102.85 29.7444 102.272 31.022 102.249C34.6057 102.184 38.1873 102.124 41.771 102.06C53.2844 101.849 64.5809 105.719 76.0041 104.164C85.0976 102.927 94.1288 102.324 103.216 103.741C105.026 104.025 111.304 104.984 111.931 102.779C112.477 100.864 111.736 97.6258 111.717 95.5967C111.682 91.7639 111.12 88.3219 110.587 84.517C110.115 81.1394 110.536 77.7747 110.042 74.438C109.522 70.9165 108.766 68.1187 108.732 64.4491C108.59 49.79 108.721 43.7155 108.468 29.0586L107.132 21.7172Z" fill="#87A05A"/>
<path d="M38.1345 52.4204C39.3004 52.7983 39.3176 54.0115 40.1808 54.9455C40.7154 55.5231 41.8835 57.0348 42.2528 57.8486C42.4053 58.4863 42.7768 58.8256 42.94 59.459C43.7344 59.8348 44.2025 60.6829 44.7694 61.4108C47.0734 64.3998 49.0016 68.3957 50.5089 71.8613C51.5009 74.919 52.7656 77.8349 54.3095 80.6134C55.5957 82.4085 56.7444 84.298 57.7558 86.2842C58.795 88.0814 59.6754 89.971 60.3969 91.9486C62.1748 95.3927 65.0993 100.973 67.6094 103.842C69.2541 105.485 69.5075 106.215 70.5768 108.31C71.5903 110.015 72.5029 111.782 73.3124 113.612C74.3817 115.046 75.378 116.539 76.3035 118.085C76.544 119.042 64.6569 119.283 62.0502 119.283C55.9714 120.163 43.0387 118.935 40.3354 119.283C38.1066 119.843 36.2857 119.128 34.0032 119.278C29.9149 119.463 34.0054 119.321 29.9128 119.283C26.4235 118.999 19.6104 118.961 17.7531 119.283C16.2242 119.927 10.8047 119.283 5.59335 119.283C4.72373 119.283 -1.35505 119.283 0.276833 119.044C1.24952 116.644 2.24369 117.249 2.98663 114.885C3.9722 112.528 4.43385 112.01 5.59335 108.727C6.98046 104.791 9.42614 100.559 12.0007 97.2909C15.3267 93.0694 16.7138 87.6413 19.3592 82.8659C20.4006 81.0858 20.7291 79.8469 21.5558 77.9358C23.1855 75.2883 23.0245 74.1052 25.03 71.7776C27.218 69.1279 27.6067 68.6062 29.3738 65.6194C32.4529 60.4081 33.3226 56.309 37.7888 52.4226H38.1345V52.4204Z" fill="#B4CD28"/>
<path d="M104.355 0.0864405C107.844 0.664043 111.669 1.18367 114.909 2.82844C117.29 4.03733 120.502 3.41893 122.652 4.90266C124.464 6.15234 128.267 9.59863 130.012 11.0179C137.654 17.2191 140.209 26.0678 139.228 35.8656C138.193 46.2066 135.174 55.6758 124.548 60.273C115.199 64.3184 121.048 65.0291 102.487 64.7006C91.3516 64.5031 81.614 54.5808 77.3281 51.2612C73.0444 47.9415 71.9923 39.4128 72.1125 32.3721C72.3702 17.3887 76.6796 7.0327 84.9486 3.55205C92.6915 0.296868 102.32 -0.250673 104.355 0.0864405Z" fill="#46C3BE"/>
<path d="M312.135 90.234L310.471 90.8288C309.003 91.4236 308.464 91.969 308.464 93.2573C308.464 94.7453 309.542 95.7867 311.302 95.7867H320.458C322.318 95.7867 323.346 94.7453 323.346 93.2573C323.346 92.0184 322.906 91.4236 321.583 90.7279L320.409 90.2319V78.5789C320.409 78.5789 321.731 76.5949 324.229 76.5949C326.627 76.5949 327.997 77.9841 327.997 81.7031V90.2319L326.822 90.7279C325.5 91.4214 325.06 92.0162 325.06 93.2573C325.06 94.7453 326.137 95.7867 327.948 95.7867H336.809C338.621 95.7867 339.648 94.7453 339.648 93.2573C339.648 91.969 339.158 91.372 337.689 90.7773L336.27 90.2319V79.9681C336.27 73.6704 333.039 70.4474 327.164 70.4474C321.338 70.4474 319.674 74.5636 319.674 74.5636L319.576 74.5142V74.0676C319.576 71.5382 318.596 70.5461 315.904 70.5461C313.995 70.5461 311.792 70.9434 310.373 71.39C308.953 71.8366 308.365 72.5302 308.365 73.9688C308.365 75.3581 308.904 75.9529 310.422 76.3479L312.135 76.8439V90.234ZM292.604 80.5651C292.995 77.589 294.367 75.8541 296.422 75.8541C298.38 75.8541 299.703 77.1939 299.8 80.5651H292.604ZM303.815 84.9282C306.213 84.9282 307.585 83.539 307.585 80.6145C307.585 74.2179 303.864 70.4001 297.206 70.4001C289.471 70.4001 284.331 75.6565 284.331 84.1359C284.331 91.722 288.836 96.3343 296.914 96.3343C301.76 96.3343 304.648 94.8956 305.775 93.7555C306.364 93.1607 306.658 92.5165 306.658 91.6727C306.658 90.3843 305.923 89.6392 304.749 89.6392C303.624 89.6392 302.35 90.3843 299.218 90.3843C295.398 90.3843 293.148 88.5506 292.609 84.9304H303.815V84.9282ZM272.287 88.1512C272.287 88.1512 270.965 90.1352 268.517 90.1352C266.168 90.1352 264.405 88.3015 264.405 83.5411C264.405 78.1366 266.314 76.1032 269.595 76.1032C271.308 76.1032 272.287 76.6979 272.287 76.6979V88.1512ZM272.337 68.5149C272.337 69.3587 272.386 69.9535 272.433 70.5483L272.337 70.6471C272.337 70.6471 271.358 70.398 270.035 70.398C260.978 70.398 255.887 75.605 255.887 84.4301C255.887 92.4628 259.657 96.2806 265.579 96.2806C271.405 96.2806 273.069 92.1644 273.069 92.1644L273.168 92.2138V92.6604C273.168 95.0395 274.246 96.1303 276.889 96.1303C278.602 96.1303 280.707 95.7824 282.079 95.2864C283.498 94.741 284.086 93.9981 284.086 92.6582C284.086 91.269 283.597 90.6742 282.128 90.3285L280.61 89.9806V64.053C280.61 60.9287 279.435 59.7886 276.35 59.7886C274.097 59.7886 271.944 60.1364 270.524 60.583C269.105 61.0297 268.517 61.7232 268.517 63.1125C268.517 64.5017 269.105 65.0965 270.574 65.541L272.337 65.9876V68.5149ZM239.682 90.234L238.018 90.8288C236.549 91.4236 236.01 91.969 236.01 93.2573C236.01 94.7453 237.088 95.7867 238.849 95.7867H249.129C250.892 95.7867 251.921 94.7453 251.921 93.2573C251.921 92.0184 251.431 91.4236 249.913 90.8782L247.955 90.234V79.5731C248.591 78.7786 249.619 78.0357 250.942 78.0357C252.02 78.0357 252.312 78.8795 253.34 78.8795C254.908 78.8795 256.473 76.7473 256.473 73.4256C256.473 71.3428 255.64 70.252 253.682 70.252C250.499 70.252 248.346 72.4336 247.218 75.3108L247.12 75.2614V74.0225C247.12 71.5425 246.141 70.5504 243.448 70.5504C241.539 70.5504 239.336 70.9477 237.917 71.3943C236.497 71.8409 235.909 72.5345 235.909 73.9731C235.909 75.3624 236.448 75.9571 237.966 76.3522L239.68 76.8482V90.234H239.682ZM222.94 88.8469C222.94 88.8469 221.716 90.3843 219.464 90.3843C217.799 90.3843 216.721 89.2935 216.721 88.0052C216.721 86.6653 217.847 85.873 220.492 85.873C222.059 85.873 222.94 86.1199 222.94 86.1199V88.8469ZM223.039 81.804C223.039 81.804 221.57 81.5549 219.661 81.5549C211.682 81.5549 208.206 84.7779 208.206 88.6966C208.206 92.961 211.487 96.2827 216.528 96.2827C221.963 96.2827 223.676 92.5144 223.676 92.5144L223.773 92.5638V92.8107C223.773 95.0416 224.898 96.1324 227.494 96.1324C229.354 96.1324 231.411 95.7846 232.83 95.2886C234.2 94.7432 234.788 94.0002 234.788 92.6604C234.788 91.2711 234.348 90.6763 232.879 90.3306L231.411 90.0322C231.116 85.8666 231.312 82.5448 231.312 78.974C231.312 73.4191 228.325 70.4452 221.031 70.4452C215.596 70.4452 211.729 72.032 210.456 73.3204C209.917 73.8658 209.672 74.4111 209.672 75.1047C209.672 76.4446 210.553 77.385 211.875 77.385C213.198 77.385 214.911 76.3436 218.828 76.3436C221.911 76.3436 223.039 77.4838 223.039 80.5093V81.804ZM199.93 72.0857C200.519 73.6231 201.302 74.2673 202.672 74.2673C204.092 74.2673 204.974 73.5737 205.021 71.9375C205.071 70.6986 205.071 69.9535 205.071 68.5149V67.9201C205.071 65.4401 204.875 64.6971 204.092 63.8533C203.063 62.8612 200.519 61.968 196.063 61.968C183.775 61.968 176.431 69.406 176.431 79.9188C176.431 90.0343 182.647 96.3321 193.42 96.3321C199.735 96.3321 202.623 94.6466 203.847 93.7039C205.071 92.7613 205.805 91.7199 205.805 89.4889V80.7132C205.805 78.8795 204.925 77.9863 203.112 77.9863H194.889C193.321 77.9863 192.391 78.9783 192.391 80.1185C192.391 81.4583 193.175 82.3 194.839 82.796L197.727 83.6893V90.3349C197.727 90.3349 197.042 90.5819 195.524 90.5819C189.259 90.5819 185.389 86.6653 185.389 79.0277C185.389 71.7872 189.16 67.9695 194.985 67.9695C197.628 67.9695 198.706 68.5149 198.706 68.5149L199.93 72.0857ZM147.353 97.6226C146.424 99.5079 145.249 100.399 143.291 100.399C140.989 100.399 140.648 99.8042 139.13 99.8042C137.611 99.8042 136.291 101.093 136.291 103.424C136.291 105.904 138.103 107.442 141.431 107.442C146.915 107.442 152.202 104.665 157.147 92.1687L163.365 76.4489L164.001 76.1504C165.519 75.4075 166.105 74.4648 166.105 73.125C166.105 71.8366 165.175 70.9434 163.558 70.9434H156.264C154.65 70.9434 153.718 71.8366 153.718 73.125C153.718 74.4133 154.353 75.2571 155.871 76.0495L156.46 76.3479L153.473 84.7285C152.64 87.1077 152.054 89.3408 152.054 89.3408H151.955C151.955 89.3408 151.369 87.1098 150.585 84.7779L147.549 76.3479L148.135 76.0495C149.653 75.255 150.289 74.4133 150.289 73.125C150.289 71.8366 149.359 70.9434 147.742 70.9434H138.784C137.169 70.9434 136.237 71.8366 136.237 73.125C136.237 74.4648 136.776 75.4053 138.341 76.1504L138.977 76.4489L147.353 97.6226ZM94.3342 90.234L92.6701 90.8288C91.2014 91.4236 90.6624 91.969 90.6624 93.2573C90.6624 94.7453 91.7403 95.7867 93.5011 95.7867H102.607C104.42 95.7867 105.446 94.6959 105.446 93.2573C105.446 92.0184 105.055 91.473 103.733 90.7279L102.607 90.2319V78.5789C102.607 78.5789 103.93 76.5949 106.329 76.5949C108.678 76.5949 110 77.9841 110 81.7031V90.2319L108.922 90.7279C107.6 91.4708 107.209 92.0162 107.209 93.2573C107.209 94.7453 108.237 95.7867 110.048 95.7867H118.271C120.084 95.7867 121.159 94.7453 121.159 93.2573C121.159 92.0184 120.719 91.473 119.397 90.7279L118.319 90.2319V80.1657C118.319 79.1737 118.269 78.6283 118.269 78.6283C118.269 78.6283 119.592 76.5949 121.99 76.5949C124.339 76.5949 125.712 77.9841 125.712 81.7031V90.2319L124.634 90.7279C123.311 91.4708 122.871 92.0162 122.871 93.2573C122.871 94.7453 123.899 95.7867 125.709 95.7867H134.571C136.334 95.7867 137.362 94.7453 137.362 93.2573C137.362 91.969 136.873 91.372 135.404 90.7773L133.985 90.2319V79.9681C133.985 73.6704 130.753 70.4474 124.977 70.4474C119.102 70.4474 117.243 74.6624 117.243 74.6624C115.873 72.0342 113.425 70.4474 109.264 70.4474C103.537 70.4474 101.871 74.5636 101.871 74.5636L101.772 74.5142V74.0676C101.772 71.5382 100.793 70.5461 98.1004 70.5461C96.1915 70.5461 93.9885 70.9434 92.5692 71.39C91.1499 71.8366 90.5615 72.5302 90.5615 73.9688C90.5615 75.3581 91.1005 75.9529 92.6186 76.3479L94.332 76.8439V90.234H94.3342Z" fill="#2C2C2C"/>
<path d="M340.269 119.054H339.664C339.2 119.054 338.951 119.307 338.951 119.776V120.679C338.951 121.15 339.2 121.403 339.664 121.403H340.269C340.733 121.403 340.982 121.15 340.982 120.679V119.776C340.982 119.307 340.733 119.054 340.269 119.054ZM340.287 108.758H339.645C339.181 108.758 338.932 109.011 338.932 109.482V110.71L339.181 117.394C339.198 117.845 339.449 118.099 339.894 118.099H340.037C340.484 118.099 340.733 117.845 340.75 117.394L340.999 110.693V109.482C340.999 109.011 340.75 108.758 340.287 108.758ZM329.087 120.679V113.184L331.618 120.806C331.743 121.203 332.011 121.403 332.421 121.403H333.063C333.527 121.403 333.776 121.15 333.776 120.679V109.48C333.776 109.009 333.527 108.756 333.063 108.756H332.599C332.136 108.756 331.887 109.009 331.887 109.48V116.578L329.46 109.353C329.336 108.956 329.067 108.756 328.657 108.756H327.908C327.444 108.756 327.195 109.009 327.195 109.48V120.679C327.195 121.15 327.444 121.403 327.908 121.403H328.372C328.838 121.403 329.087 121.15 329.087 120.679ZM322.31 120.679V120.282C322.31 119.812 322.061 119.559 321.597 119.559H318.851V115.911H320.992C321.455 115.911 321.704 115.657 321.704 115.187V114.79C321.704 114.319 321.455 114.066 320.992 114.066H318.851V110.598H321.543C322.007 110.598 322.256 110.345 322.256 109.875V109.477C322.256 109.007 322.007 108.754 321.543 108.754H317.496C317.032 108.754 316.783 109.007 316.783 109.477V120.677C316.783 121.148 317.032 121.401 317.496 121.401H321.597C322.061 121.403 322.31 121.15 322.31 120.679ZM309.435 111.758V118.406C309.435 119.31 308.971 119.561 308.293 119.561H307.241V110.6H308.293C308.971 110.6 309.435 110.854 309.435 111.758ZM308.364 108.758H305.886C305.422 108.758 305.173 109.011 305.173 109.482V120.682C305.173 121.152 305.422 121.405 305.886 121.405H308.364C310.253 121.405 311.503 120.647 311.503 118.732V111.434C311.503 109.516 310.255 108.758 308.364 108.758ZM295.631 110.6H296.719C297.398 110.6 297.862 110.854 297.862 111.756V113.4C297.862 114.304 297.398 114.556 296.719 114.556H295.631V110.6ZM300.091 120.572L298.575 116.037C299.431 115.657 299.93 114.899 299.93 113.688V111.429C299.93 109.514 298.682 108.756 296.79 108.756H294.276C293.812 108.756 293.563 109.009 293.563 109.48V120.679C293.563 121.15 293.812 121.403 294.276 121.403H294.918C295.382 121.403 295.631 121.15 295.631 120.679V116.361H296.683L298.074 120.806C298.199 121.221 298.467 121.403 298.877 121.403H299.502C300.018 121.403 300.252 121.06 300.091 120.572ZM284.396 116.851L285.27 111.234L286.144 116.851H284.396ZM288.82 120.626L286.733 109.409C286.662 108.975 286.376 108.758 285.947 108.758H284.663C284.235 108.758 283.95 108.975 283.879 109.409L281.828 120.626C281.738 121.13 281.989 121.403 282.47 121.403H283.022C283.45 121.403 283.718 121.186 283.789 120.735L284.128 118.586H286.411L286.75 120.735C286.821 121.186 287.089 121.403 287.516 121.403H288.176C288.659 121.403 288.908 121.133 288.82 120.626ZM276.585 114.899H274.73C274.266 114.899 274.017 115.153 274.017 115.623V115.947C274.017 116.417 274.266 116.671 274.73 116.671H275.23V118.549C275.23 119.453 274.766 119.707 274.088 119.707C273.409 119.707 272.948 119.453 272.948 118.549V111.614C272.948 110.71 273.411 110.459 274.088 110.459C274.766 110.459 275.23 110.712 275.23 111.614V112.372C275.23 112.842 275.479 113.096 275.943 113.096H276.585C277.049 113.096 277.298 112.842 277.298 112.372V111.288C277.298 109.409 276.05 108.614 274.159 108.614H274.017C272.127 108.614 270.878 109.409 270.878 111.288V118.874C270.878 120.843 272.125 121.547 274.017 121.547H274.159C276.048 121.547 277.298 120.825 277.298 118.874V115.623C277.298 115.153 277.049 114.899 276.585 114.899ZM254.988 110.6H256.077C256.755 110.6 257.217 110.854 257.217 111.756V113.4C257.217 114.304 256.753 114.556 256.077 114.556H254.988V110.6ZM259.448 120.572L257.932 116.037C258.789 115.657 259.287 114.899 259.287 113.688V111.429C259.287 109.514 258.039 108.756 256.148 108.756H253.633C253.169 108.756 252.92 109.009 252.92 109.48V120.679C252.92 121.15 253.169 121.403 253.633 121.403H254.275C254.739 121.403 254.988 121.15 254.988 120.679V116.361H256.04L257.432 120.806C257.556 121.221 257.825 121.403 258.235 121.403H258.86C259.375 121.403 259.607 121.06 259.448 120.572ZM246.891 108.758H246.249C245.785 108.758 245.536 109.011 245.536 109.482V118.549C245.536 119.453 245.143 119.707 244.467 119.707C243.788 119.707 243.397 119.453 243.397 118.549V109.482C243.397 109.011 243.148 108.758 242.685 108.758H242.043C241.579 108.758 241.33 109.011 241.33 109.482V118.876C241.33 120.845 242.543 121.549 244.432 121.549H244.503C246.393 121.549 247.606 120.828 247.606 118.876V109.482C247.606 109.011 247.355 108.758 246.891 108.758ZM231.734 118.549V111.614C231.734 110.71 232.198 110.459 232.874 110.459C233.552 110.459 234.016 110.712 234.016 111.614V118.549C234.016 119.453 233.552 119.707 232.874 119.707C232.198 119.705 231.734 119.451 231.734 118.549ZM229.664 111.288V118.874C229.664 120.789 230.911 121.547 232.803 121.547H232.947C234.837 121.547 236.086 120.789 236.086 118.874V111.288C236.086 109.372 234.839 108.614 232.947 108.614H232.803C230.914 108.614 229.664 109.355 229.664 111.288ZM222.799 116.905L225.065 109.57C225.226 109.082 224.994 108.756 224.476 108.756H223.817C223.39 108.756 223.138 108.956 223.033 109.387L221.786 114.626L220.538 109.387C220.431 108.954 220.182 108.756 219.754 108.756H219.059C218.541 108.756 218.309 109.082 218.47 109.57L220.736 116.905V120.679C220.736 121.15 220.985 121.403 221.449 121.403H222.091C222.554 121.403 222.803 121.15 222.803 120.679V116.905H222.799ZM207.62 112.552V111.217C207.62 109.338 206.266 108.616 204.552 108.616H204.516C202.804 108.616 201.447 109.338 201.447 111.217V112.879C201.447 114.197 202.143 114.775 203.356 115.479L204.801 116.31C205.426 116.653 205.621 116.978 205.621 117.628V118.622C205.621 119.4 205.175 119.743 204.552 119.743C203.929 119.743 203.483 119.4 203.483 118.622V117.431C203.483 116.961 203.234 116.709 202.77 116.709H202.164C201.701 116.709 201.452 116.963 201.452 117.431V118.912C201.452 120.881 202.645 121.549 204.537 121.549H204.574C206.463 121.549 207.659 120.862 207.659 118.912V117.087C207.659 115.732 206.946 115.172 205.75 114.487L204.288 113.656C203.7 113.312 203.485 113.025 203.485 112.374V111.507C203.485 110.712 203.929 110.422 204.537 110.422C205.143 110.422 205.589 110.712 205.589 111.507V112.554C205.589 113.025 205.838 113.278 206.302 113.278H206.908C207.371 113.274 207.62 113.022 207.62 112.552ZM196.921 120.679V120.282C196.921 119.812 196.672 119.559 196.208 119.559H193.462V115.911H195.602C196.066 115.911 196.315 115.657 196.315 115.187V114.79C196.315 114.319 196.066 114.066 195.602 114.066H193.462V110.598H196.154C196.618 110.598 196.867 110.345 196.867 109.875V109.477C196.867 109.007 196.618 108.754 196.154 108.754H192.107C191.643 108.754 191.394 109.007 191.394 109.477V120.677C191.394 121.148 191.643 121.401 192.107 121.401H196.208C196.672 121.403 196.921 121.15 196.921 120.679ZM186.702 120.572L184.366 113.51L186.329 109.608C186.578 109.121 186.365 108.76 185.811 108.76H185.062C184.669 108.76 184.383 108.941 184.242 109.321L182.225 114.45V109.484C182.225 109.014 181.976 108.76 181.512 108.76H180.87C180.407 108.76 180.158 109.014 180.158 109.484V120.684C180.158 121.154 180.407 121.407 180.87 121.407H181.512C181.976 121.407 182.225 121.154 182.225 120.684V117.757L183.153 115.915L184.686 120.81C184.811 121.225 185.079 121.407 185.489 121.407H186.114C186.631 121.403 186.863 121.06 186.702 120.572ZM170.991 116.851L171.865 111.234L172.739 116.851H170.991ZM175.414 120.626L173.327 109.409C173.256 108.975 172.971 108.758 172.541 108.758H171.257C170.83 108.758 170.544 108.975 170.474 109.409L168.423 120.626C168.333 121.13 168.584 121.403 169.065 121.403H169.617C170.044 121.403 170.313 121.186 170.383 120.735L170.723 118.586H173.005L173.344 120.735C173.415 121.186 173.684 121.403 174.111 121.403H174.77C175.253 121.403 175.502 121.133 175.414 120.626ZM161.683 113.671V120.679C161.683 121.15 161.932 121.403 162.396 121.403H162.967C163.431 121.403 163.68 121.15 163.68 120.679V109.48C163.68 109.009 163.431 108.756 162.967 108.756H162.254C161.844 108.756 161.575 108.956 161.451 109.353L159.222 116.108L157.01 109.353C156.886 108.936 156.618 108.756 156.207 108.756H155.565C155.102 108.756 154.853 109.009 154.853 109.48V120.679C154.853 121.15 155.102 121.403 155.565 121.403H156.064C156.527 121.403 156.776 121.15 156.776 120.679V113.671L158.453 118.964C158.578 119.378 158.846 119.561 159.237 119.561C159.63 119.561 159.879 119.38 160.004 118.964L161.683 113.671Z" fill="#2C2C2C"/>
</svg>
